<svg xmlns="http://www.w3.org/2000/svg" version="1.1" xmlns:xlink="http://www.w3.org/1999/xlink" xmlns:svgjs="http://svgjs.dev/svgjs" width="1500" height="401" viewBox="0 0 1500 401"><g transform="matrix(1,0,0,1,-0.9090909090909918,-0.14841084375723312)"><svg viewBox="0 0 396 106" data-background-color="#ffffff" preserveAspectRatio="xMidYMid meet" height="401" width="1500" xmlns="http://www.w3.org/2000/svg" xmlns:xlink="http://www.w3.org/1999/xlink"><g id="tight-bounds" transform="matrix(1,0,0,1,0.2400000000000091,0.03923079660415851)"><svg viewBox="0 0 395.52 105.92153840679168" height="105.92153840679168" width="395.52"><g><svg viewBox="0 0 582.2874231435286 155.93845988645083" height="105.92153840679168" width="395.52"><g transform="matrix(1,0,0,1,0,45.32194341571118)"><svg viewBox="0 0 395.52 65.29457305502847" height="65.29457305502847" width="395.52"><g id="textblocktransform"><svg viewBox="0 0 395.52 65.29457305502847" height="65.29457305502847" width="395.52" id="textblock"><g><svg viewBox="0 0 395.52 65.29457305502847" height="65.29457305502847" width="395.52"><g transform="matrix(1,0,0,1,0,0)"><svg width="395.52" viewBox="0.3 -38.65 241.13 39.15" height="65.29457305502847" data-palette-color="#111111"><g class="wordmark-text-0" data-fill-palette-color="primary" id="text-0"><path d="M13.1-34.05L21.5-9.05 30.2-34.05 26.3-34.05 26.3-35 33.95-35 33.95-34.05 31.6-34.05 19.55 0.5 15.35 0.5 2.6-34.05 0.3-34.05 0.3-35 16.65-35 16.65-34.05 13.1-34.05ZM50.9-9.85L50.9-9.85 50.9-14.1Q50.9-18.95 50.37-21.18 49.85-23.4 47.95-23.4L47.95-23.4Q46.85-23.4 46.17-22.78 45.5-22.15 45.2-20.7L45.2-20.7Q44.75-18.45 44.75-13.85L44.75-13.85 44.75-9.95Q44.75-4.5 45.07-3.4 45.4-2.3 45.75-1.6L45.75-1.6Q46.3-0.4 47.9-0.4L47.9-0.4Q49.85-0.4 50.45-2.65L50.45-2.65Q50.9-4.25 50.9-9.85ZM47.8 0.5Q41.55 0.5 38.35-2.7 35.15-5.9 35.15-11.88 35.15-17.85 38.57-21.08 42-24.3 48.2-24.3 54.4-24.3 57.45-21.33 60.5-18.35 60.5-12.25L60.5-12.25Q60.5 0.5 47.8 0.5L47.8 0.5ZM69.25-27.25Q66.6-27.25 65.47-28.6 64.35-29.95 64.35-31.95 64.35-33.95 65.57-35.25 66.8-36.55 69.3-36.55 71.8-36.55 73.1-35.38 74.4-34.2 74.4-32.02 74.4-29.85 73.15-28.55 71.9-27.25 69.25-27.25ZM61.7-22.9L61.7-23.8 73.95-23.8 73.95-0.9 76.75-0.9 76.75 0 61.9 0 61.9-0.9 64.65-0.9 64.65-22.9 61.7-22.9ZM91.74-23.4L91.74-23.4Q89.54-23.4 88.59-21 87.64-18.6 87.64-13.05L87.64-13.05 87.64-10.45Q87.64-5.5 88.74-3.35 89.84-1.2 92.79-1.2 95.74-1.2 97.49-3.2 99.24-5.2 99.74-7.75L99.74-7.75 100.64-7.65Q99.69-3.35 97.14-1.45L97.14-1.45Q94.54 0.5 89.99 0.5L89.99 0.5Q84.19 0.5 81.09-2.63 77.99-5.75 77.99-11.78 77.99-17.8 81.52-21.05 85.04-24.3 91.34-24.3L91.34-24.3Q95.79-24.3 98.14-22.58 100.49-20.85 100.49-18.25 100.49-15.65 99.37-14.45 98.24-13.25 96.27-13.25 94.29-13.25 93.09-14.3 91.89-15.35 91.89-17.4L91.89-17.4Q91.89-18.3 92.14-19.2L92.14-19.2 93.79-19.2Q94.14-20.2 94.14-21L94.14-21Q94.14-23.4 91.74-23.4ZM115.04 0.5Q108.59 0.5 105.37-2.83 102.14-6.15 102.14-12.08 102.14-18 105.77-21.15 109.39-24.3 114.99-24.3L114.99-24.3Q126.34-24.3 125.89-12.9L125.89-12.9 111.79-12.9 111.79-10.95Q111.79-6.05 113.04-3.55 114.29-1.05 117.39-1.05L117.39-1.05Q123.19-1.05 124.99-7.25L124.99-7.25 125.89-7.1Q124.94-3.5 122.47-1.5 119.99 0.5 115.04 0.5L115.04 0.5ZM111.84-16.35L111.84-13.9 116.99-13.9 116.99-16.35Q116.99-20.4 116.52-21.88 116.04-23.35 114.62-23.35 113.19-23.35 112.52-21.78 111.84-20.2 111.84-16.35L111.84-16.35ZM147.19-34.55L147.19-34.55Q139.44-34.55 139.44-19.6L139.44-19.6 139.44-15.65Q139.44-8.55 141.49-4.53 143.54-0.5 147.54-0.5L147.54-0.5Q153.04-0.5 157.64-11.2L157.64-11.2 158.54-11.2 158.19-0.05 157.64-0.05Q157.34-0.6 157.09-0.83 156.84-1.05 156.36-1.05 155.89-1.05 152.74-0.28 149.59 0.5 146.34 0.5L146.34 0.5Q138.19 0.5 133.71-3.9 129.24-8.3 129.24-17.13 129.24-25.95 133.91-30.75 138.59-35.55 146.49-35.55L146.49-35.55Q149.54-35.55 152.46-34.77 155.39-34 155.89-34 156.39-34 156.64-34.23 156.89-34.45 157.19-35L157.19-35 157.74-35 158.14-24.15 157.24-24.15Q154.99-29.2 152.61-31.88 150.24-34.55 147.19-34.55ZM162.19-36.6L162.19-37.5 174.24-37.5 174.24-19.2Q175.03-21.5 176.69-22.9 178.34-24.3 181.69-24.3L181.69-24.3Q189.44-24.3 189.44-15.95L189.44-15.95 189.44-0.9 192.24-0.9 192.24 0 178.09 0 178.09-0.9 180.13-0.9 180.13-17.15Q180.13-20.15 179.74-21.03 179.34-21.9 178.28-21.9L178.28-21.9Q176.69-21.9 175.46-19.8 174.24-17.7 174.24-14.7L174.24-14.7 174.24-0.9 176.38-0.9 176.38 0 162.19 0 162.19-0.9 164.94-0.9 164.94-36.6 162.19-36.6ZM206.13 0.5Q199.68 0.5 196.46-2.83 193.23-6.15 193.23-12.08 193.23-18 196.86-21.15 200.48-24.3 206.08-24.3L206.08-24.3Q217.43-24.3 216.98-12.9L216.98-12.9 202.88-12.9 202.88-10.95Q202.88-6.05 204.13-3.55 205.38-1.05 208.48-1.05L208.48-1.05Q214.28-1.05 216.08-7.25L216.08-7.25 216.98-7.1Q216.03-3.5 213.56-1.5 211.08 0.5 206.13 0.5L206.13 0.5ZM202.93-16.35L202.93-13.9 208.08-13.9 208.08-16.35Q208.08-20.4 207.61-21.88 207.13-23.35 205.71-23.35 204.28-23.35 203.61-21.78 202.93-20.2 202.93-16.35L202.93-16.35ZM233.93-37.8L233.93-37.8Q232.03-37.8 231.43-36.38 230.83-34.95 230.83-31.8L230.83-31.8 230.83-23.8 237.43-23.8 237.43-22.9 230.83-22.9 230.83-0.9 236.93-0.9 236.93 0 218.78 0 218.78-0.9 221.53-0.9 221.53-22.9 218.63-22.9 218.63-23.8 221.53-23.8 221.53-24Q221.53-31.2 224.28-34.93 227.03-38.65 233.48-38.65L233.48-38.65Q237.73-38.65 239.58-36.98 241.43-35.3 241.43-33.1 241.43-30.9 240.28-29.8 239.13-28.7 237.23-28.7 235.33-28.7 234.31-29.68 233.28-30.65 233.28-31.93 233.28-33.2 233.58-34.4L233.58-34.4 235.48-34.4Q236.48-37.8 233.93-37.8Z" fill="#111111" data-fill-palette-color="primary"></path></g></svg></g></svg></g></svg></g></svg></g><g transform="matrix(1,0,0,1,426.3489632570778,0)"><svg viewBox="0 0 155.93845988645083 155.93845988645083" height="155.93845988645083" width="155.93845988645083"><g><svg></svg></g><g id="icon-0"><svg viewBox="0 0 155.93845988645083 155.93845988645083" height="155.93845988645083" width="155.93845988645083"><g><path d="M0 77.969c0-43.061 34.908-77.969 77.969-77.969 43.061 0 77.969 34.908 77.969 77.969 0 43.061-34.908 77.969-77.969 77.969-43.061 0-77.969-34.908-77.969-77.969zM77.969 150.05c39.809 0 72.081-32.272 72.081-72.081 0-39.809-32.272-72.081-72.081-72.081-39.809 0-72.081 32.272-72.081 72.081 0 39.809 32.272 72.081 72.081 72.081z" data-fill-palette-color="accent" fill="#d17a22" stroke="transparent"></path></g><g transform="matrix(1,0,0,1,42.69777359884951,35.64229181043188)"><svg viewBox="0 0 70.54291268875181 84.65387626558707" height="84.65387626558707" width="70.54291268875181"><g><svg xmlns="http://www.w3.org/2000/svg" xmlns:xlink="http://www.w3.org/1999/xlink" version="1.1" x="0" y="0" viewBox="42.686 0.016 426.62800000000004 511.96799999999996" enable-background="new 0 0 512 512" xml:space="preserve" height="84.65387626558707" width="70.54291268875181" class="icon-dxe-0" data-fill-palette-color="accent" id="dxe-0"><g fill="#d17a22" data-fill-palette-color="accent"><path d="M434.161 402.381L432.567 401.928C409.474 395.711 401.663 389.774 391.382 385.852 354.931 371.961 345.431 361.948 343.009 357.213 342.931 357.057 342.853 356.869 342.775 356.682L342.556 324.84A186 186 0 0 0 347.681 317.621C370.336 306.637 373.398 289.31 368.899 274.967 373.398 261.281 375.992 246.938 375.992 232.376 375.992 225.838 375.617 219.486 374.883 213.338H375.992V148.147C410.865 141.859 437.316 111.361 437.316 74.675 437.316 33.444 403.897 0.016 362.666 0.016 341.76 0.016 322.887 8.609 309.34 22.444 295.779 8.601 276.904 0.016 256 0.016 237.72 0.016 220.971 6.593 207.987 17.499 195.02 6.593 178.286 0.016 160.006 0.016 118.775 0.016 85.339 33.444 85.339 74.675 85.339 107.517 106.541 135.398 136.008 145.398V213.338H137.117A161 161 0 0 0 136.008 232.376C136.008 246.938 138.602 261.281 143.101 274.982 138.602 289.31 141.663 306.636 164.319 317.621A187 187 0 0 0 169.444 324.84L169.225 356.682A9 9 0 0 1 168.991 357.213C166.569 361.947 157.069 371.961 120.603 385.852 110.337 389.774 102.526 395.711 79.433 401.928L77.839 402.381C56.825 409.334 42.686 428.832 42.686 450.832V511.984H469.314V450.832C469.314 428.832 455.176 409.334 434.161 402.381M190.551 356.838L190.613 348.682C212.346 369.321 236.719 382.102 256 382.102S299.654 369.321 321.387 348.682L321.449 356.838 321.48 361.369 322.199 362.963 256.094 406.131 190.317 361.807 190.52 361.354zM256 308.84C266.375 320.199 283.982 327.778 301.403 327.778 303.184 327.778 304.965 327.7 306.747 327.528 308.918 327.34 311.012 327.122 313.043 326.856 303.622 336.854 293.373 345.245 283.123 351.338 272.874 357.416 263.234 360.776 256 360.776 248.767 360.776 239.126 357.417 228.877 351.338 218.628 345.244 208.378 336.854 198.957 326.856 200.988 327.122 203.082 327.34 205.253 327.528 207.034 327.7 208.815 327.778 210.597 327.778 228.018 327.777 245.626 320.199 256 308.84M304.794 306.293C303.685 306.402 302.544 306.449 301.403 306.449 286.591 306.449 272.639 298.138 268.905 290.373 268.093 288.701 266.593 285.561 271.421 279.529 271.64 279.248 271.843 278.998 272.03 278.779 274.936 280.326 279.482 283.701 282.435 285.888 292.966 293.7 306.075 303.417 323.011 303.417H323.511C318.402 304.59 312.23 305.621 304.794 306.293M243.095 290.373C241.267 294.17 237.048 298.061 231.518 301.059 225.112 304.528 217.691 306.45 210.597 306.45A35 35 0 0 1 207.206 306.294C199.769 305.622 193.598 304.591 188.488 303.419H188.988C205.925 303.419 219.034 293.702 229.564 285.89 232.517 283.702 237.063 280.328 239.969 278.781 240.157 279 240.36 279.25 240.578 279.531 245.407 285.561 243.907 288.701 243.095 290.373M106.682 74.675C106.682 45.271 130.602 21.35 160.006 21.35A53.23 53.23 0 0 1 193.77 33.412C185.912 45.231 181.333 59.418 181.333 74.675 181.333 80.566 186.114 85.346 192.004 85.346 197.895 85.346 202.676 80.566 202.676 74.675 202.676 45.271 226.596 21.35 256 21.35S309.324 45.271 309.324 74.675C309.324 80.566 314.105 85.346 319.996 85.346S330.668 80.566 330.668 74.675V74.62C330.652 62.129 327.574 50.356 322.137 40.013A54 54 0 0 1 327.59 34.506 53.25 53.25 0 0 1 362.666 21.35C392.07 21.35 415.99 45.271 415.99 74.675 415.99 87.252 411.537 99.463 403.444 109.048 395.429 118.539 384.336 124.969 372.211 127.156L354.666 130.32V192.003H157.334V130.109L142.866 125.195C121.212 117.852 106.682 97.549 106.682 74.675M353.385 213.338A140 140 0 0 1 354.666 232.376C354.666 239.04 353.994 245.836 352.682 252.688 350.213 251.165 347.807 250.321 345.682 250.321H345.448C330.997 250.759 324.044 265.759 324.044 265.759A21.2 21.2 0 0 1 330.278 264.798C340.245 264.798 346.339 272.468 333.746 279.265 330.075 281.249 326.497 282.093 323.013 282.093 303.905 282.093 287.562 256.743 270.922 256.743 266.001 256.743 261.048 258.97 256.001 264.727 250.955 258.969 246.002 256.743 241.08 256.743 224.44 256.743 208.098 282.093 188.989 282.093 185.506 282.093 181.927 281.249 178.24 279.265 165.663 272.468 171.757 264.798 181.724 264.798 183.693 264.798 185.802 265.095 187.958 265.759 187.958 265.759 181.005 250.759 166.553 250.321H166.319C164.194 250.321 161.788 251.165 159.319 252.688 158.007 245.844 157.335 239.041 157.335 232.376 157.335 225.854 157.773 219.494 158.616 213.338zM64.012 450.832C64.012 438.144 72.121 426.896 84.214 422.74L85.167 422.459C102.791 417.709 112.931 412.865 120.337 409.318 123.384 407.865 125.805 406.709 128.211 405.787 141.601 400.678 151.96 395.898 160.006 391.476V490.642H64.012zM181.333 490.643V381.493L255.906 431.739 330.668 382.915V490.644H181.333zM447.988 490.643H351.994V391.477C360.041 395.899 370.399 400.678 383.805 405.803 386.196 406.709 388.617 407.865 391.664 409.319 399.069 412.866 409.209 417.71 426.834 422.475L427.787 422.741C439.879 426.897 447.988 438.145 447.988 450.833z" fill="#d17a22" data-fill-palette-color="accent"></path><path d="M224.002 426.646C218.112 426.646 213.331 431.425 213.331 437.316S218.112 447.988 224.002 447.988C229.893 447.988 234.674 443.207 234.674 437.316S229.893 426.646 224.002 426.646" fill="#d17a22" data-fill-palette-color="accent"></path><path d="M224.002 469.314C218.112 469.314 213.331 474.095 213.331 479.986S218.112 490.642 224.002 490.642C229.893 490.642 234.674 485.876 234.674 479.986S229.893 469.314 224.002 469.314" fill="#d17a22" data-fill-palette-color="accent"></path><path d="M287.998 447.988C293.889 447.988 298.67 443.207 298.67 437.316S293.889 426.646 287.998 426.646 277.326 431.425 277.326 437.316 282.107 447.988 287.998 447.988" fill="#d17a22" data-fill-palette-color="accent"></path><path d="M287.998 469.314C282.107 469.314 277.326 474.095 277.326 479.986S282.107 490.642 287.998 490.642 298.67 485.876 298.67 479.986 293.889 469.314 287.998 469.314" fill="#d17a22" data-fill-palette-color="accent"></path></g></svg></g></svg></g></svg></g></svg></g></svg></g><defs></defs></svg><rect width="395.52" height="105.92153840679168" fill="none" stroke="none" visibility="hidden"></rect></g></svg></g></svg>